<?xml version="1.0" ?><!DOCTYPE svg  PUBLIC '-//W3C//DTD SVG 1.1//EN'  'http://www.w3.org/Graphics/SVG/1.1/DTD/svg11.dtd'><svg enable-background="new 0 0 100 100" id="Layer_1" version="1.1" viewBox="0 0 100 100" xml:space="preserve" xmlns="http://www.w3.org/2000/svg" xmlns:xlink="http://www.w3.org/1999/xlink"><path d="M78.403,37.23h-6.835c3.055-1.726,4.676-2.199,4.676-5.84c0-4.43-0.613-7.481-4.307-7.481H47.231  L19.846,34.826c-0.225,0.09-0.372,0.307-0.372,0.549c0,0.399,0.323,0.722,0.722,0.722c1.5,0.661,2.468,2.403,2.468,5.214  c0,4.566-1.543,5.705-2.609,6.131c-0.321,0-0.581,0.26-0.581,0.581v0.661c0,0.205,0.082,0.401,0.227,0.546s0.342,0.226,0.547,0.225  c1.382-0.004,4.33-0.011,6.471-0.011c2.148,1,2.493,3.704,2.372,6.07l-11.397,5.886c-0.247,0.127-0.401,0.382-0.401,0.659  c0,0.371,0.3,0.687,0.671,0.687h0.051c1.5,0.661,2.467,2.387,2.467,5.198c0,4.566-1.542,5.705-2.608,6.131  c-0.321,0-0.581,0.26-0.581,0.581v0.536c0,0.496,0.402,0.898,0.898,0.898h25.25c2.031,0,3.444-0.256,4.403-0.696  c5.655-2.596,21.715-11.596,22.891-12.301c1.375-0.824,3.328-1.373,3.328-5.07c0-1.969-0.141-3.641-0.6-4.919  c3.117-1.726,5.495-3.07,5.92-3.324c1.375-0.824,3.328-1.373,3.328-5.07C82.709,40.281,82.096,37.23,78.403,37.23z M23.434,47.443  c1.402-2.067,1.626-4.953,1.626-6.131c0-2.44-0.725-4.093-1.474-5.214h21.599c3.693,0,4.703,2.249,4.703,5.298  c0,3.7-0.972,6.047-4.789,6.047H23.434z M42.916,74.076H21.251c1.402-2.067,1.626-4.953,1.626-6.131c0-2.44-0.725-4.077-1.474-5.198  c0,0,14.524,0,22.187,0c3.19,0.242,4.116,2.41,4.116,5.283C47.706,71.729,46.733,74.076,42.916,74.076z M51.564,60.764H29.899  c1.402-2.067,1.626-4.953,1.626-6.131c0-2.415-0.711-4.068-1.451-5.188H51.65c3.693,0,4.703,2.223,4.703,5.273  C56.354,58.417,55.381,60.764,51.564,60.764z" fill="#656565"/></svg>